<?xml version="1.0" encoding="UTF-8"?>
<!-- Created with Inkscape (http://www.inkscape.org/) -->
<svg width="512" height="512" inkscape:export-filename="logo.png" inkscape:export-xdpi="96" inkscape:export-ydpi="96" inkscape:version="1.3.2 (091e20e, 2023-11-25, custom)" sodipodi:docname="logo_optimized.svg" version="1.1" viewBox="0 0 135.47 135.47" xmlns="http://www.w3.org/2000/svg" xmlns:inkscape="http://www.inkscape.org/namespaces/inkscape" xmlns:sodipodi="http://sodipodi.sourceforge.net/DTD/sodipodi-0.dtd">
	<sodipodi:namedview bordercolor="#000000" borderopacity="0.25" inkscape:current-layer="layer3" inkscape:cx="256.3262" inkscape:cy="258.80108" inkscape:deskcolor="#d1d1d1" inkscape:document-units="mm" inkscape:lockguides="false" inkscape:pagecheckerboard="0" inkscape:pageopacity="0.0" inkscape:showpageshadow="2" inkscape:window-height="1009" inkscape:window-maximized="1" inkscape:window-width="1920" inkscape:window-x="-8" inkscape:window-y="-8" inkscape:zoom="1.4142136" pagecolor="#ffffff" showgrid="false" showguides="true">
		<inkscape:grid color="#0099e5" opacity=".14902" dotted="false" empcolor="#0099e5" empopacity="0.30196078" empspacing="5" gridanglex="30" gridanglez="30" originx="0" originy="0" snapvisiblegridlinesonly="true" spacingx="4.2333334" spacingy="4.2333334" units="px" visible="false"/>
		<sodipodi:guide inkscape:locked="false" orientation="0,512" position="0,135.46667"/>
		<sodipodi:guide inkscape:locked="false" orientation="512,0" position="135.46667,135.46667"/>
		<sodipodi:guide inkscape:locked="false" orientation="0,-512" position="135.46667,0"/>
		<sodipodi:guide inkscape:locked="false" orientation="-512,0" position="0,0"/>
	</sodipodi:namedview>
	<g transform="translate(-33.904 -33.057)" display="none" fill="none" stroke="#000" stroke-linejoin="round" stroke-miterlimit="11.4" inkscape:groupmode="layer" inkscape:label="Layer 1" sodipodi:insensitive="true">
		<g stroke-width=".29649">
			<circle cx="101.64" cy="100.79" r="47.438" style="paint-order:markers stroke fill"/>
			<circle cx="101.81" cy="100.96" r="33.375" style="paint-order:markers stroke fill"/>
			<circle cx="101.64" cy="100.79" r="56.926" style="paint-order:markers stroke fill"/>
		</g>
		<circle cx="101.64" cy="100.79" r="42.528" stroke-width=".33225" style="paint-order:markers stroke fill"/>
		<g stroke-width=".29649">
			<circle cx="101.64" cy="100.79" r="66.413" style="paint-order:markers stroke fill"/>
			<path d="m119.15 72.442 16.551-28.666" style="paint-order:markers stroke fill"/>
			<path d="m84.36 72.517-16.543-28.653" style="paint-order:markers stroke fill"/>
			<path d="m68.43 100.96-23.719-0.16857" style="paint-order:markers stroke fill"/>
			<path d="m77.918 124.51-9.6359 9.973" style="paint-order:markers stroke fill"/>
			<path d="m101.81 134.33-0.16856 13.894" style="paint-order:markers stroke fill"/>
			<path d="m125.45 124.4 6.4613 6.2515" style="paint-order:markers stroke fill"/>
		</g>
	</g>
	<g inkscape:groupmode="layer" inkscape:label="Layer 6">
		<path d="m110.26 67.732c0 11.744-4.7601 22.376-12.494 30.034l-6.2651-6.2652c9.5805-9.5805 9.8302-21.292 9.773-23.699" fill="#f33" fill-rule="evenodd" style="paint-order:normal" sodipodi:nodetypes="cccc"/>
	</g>
	<g inkscape:groupmode="layer" inkscape:label="Layer 5">
		<path d="m91.502 91.5c-6.2591 6.2591-14.748 9.7754-23.6 9.7754-8.8541-0.0318-17.333-3.5806-23.57-9.8652l-9.8165 9.8744c8.5314 8.4465 20.263 13.666 33.217 13.666 13.039 0 24.844-5.2853 33.389-13.83z" fill="#00a854" fill-rule="evenodd" style="paint-order:normal" sodipodi:nodetypes="ccsccscc"/>
	</g>
	<g inkscape:groupmode="layer" inkscape:label="Layer 4">
		<path d="m20.514 67.732c1e-6 13.125 5.3582 24.996 14.002 33.554l16.557-16.655c-4.2939-4.2942-6.9495-10.226-6.9495-16.779z" fill="#ffbf00" fill-rule="evenodd" style="paint-order:normal"/>
	</g>
	<g inkscape:groupmode="layer" inkscape:label="Layer 3">
		<path d="m38.476 18.959a56.926 56.926 0 0 0-27.704 48.738 56.926 56.926 0 0 0 0.0058 0.08281l23.748 0.12103c0-11.99 6.3232-22.504 15.816-28.388z" fill="#a800a8" fill-rule="evenodd" style="paint-order:normal"/>
	</g>
	<g inkscape:groupmode="layer" inkscape:label="Layer 2">
		<path d="m101.75 10.682c-9.9503-5.9466-21.587-9.3639-34.021-9.3639-12.444-4e-7 -24.088 3.4224-34.043 9.3772l16.69 28.794c5.0928-3.1476 11.095-4.9641 17.522-4.9641 6.1345 0 11.882 1.6551 16.822 4.543z" fill="#0af" fill-rule="evenodd" style="paint-order:normal" sodipodi:nodetypes="csccscc"/>
	</g>
</svg>
